<svg width="28" height="28" viewBox="0 0 28 28" fill="none" xmlns="http://www.w3.org/2000/svg">
<path fill-rule="evenodd" clip-rule="evenodd" d="M13.3228 0.781943C13.8748 0.781943 14.3228 1.23004 14.3228 1.78217C14.3228 2.33429 13.8748 2.7824 13.3228 2.7824H8.33748C4.89214 2.7824 2.66681 5.14293 2.66681 8.79576V19.8836C2.66681 23.5364 4.89214 25.897 8.33748 25.897H20.1028C23.5481 25.897 25.7748 23.5364 25.7748 19.8836V14.5117C25.7748 13.9596 26.2228 13.5115 26.7748 13.5115C27.3268 13.5115 27.7748 13.9596 27.7748 14.5117V19.8836C27.7748 24.6767 24.6908 27.8974 20.1028 27.8974H8.33748C3.74948 27.8974 0.666809 24.6767 0.666809 19.8836V8.79576C0.666809 4.00267 3.74948 0.781943 8.33748 0.781943H13.3228ZM24.9356 1.95367L26.5583 3.57671C27.3489 4.36622 27.7836 5.41579 27.7823 6.53338C27.7823 7.65096 27.3476 8.6992 26.5583 9.48738L16.5463 19.5016C15.8116 20.2365 14.8329 20.6419 13.7929 20.6419H8.79828C8.52894 20.6419 8.27027 20.5325 8.08227 20.3392C7.89427 20.1471 7.79161 19.8871 7.79828 19.6163L7.92361 14.5765C7.94894 13.5736 8.35294 12.6308 9.06228 11.9199H9.06361L19.0276 1.95367C20.6569 0.32664 23.3063 0.32664 24.9356 1.95367ZM18.2068 5.6025L10.4769 13.3349C10.1316 13.6803 9.93561 14.1391 9.92361 14.6259L9.82361 18.6414H13.7929C14.2996 18.6414 14.7743 18.4454 15.1329 18.0867L22.9095 10.3062L18.2068 5.6025ZM20.4409 3.36866L19.6201 4.18751L24.3228 8.89258L25.1449 8.07239C25.5556 7.66163 25.7823 7.11484 25.7823 6.53338C25.7823 5.95058 25.5556 5.40245 25.1449 4.9917L23.5223 3.36866C22.6729 2.5218 21.2916 2.5218 20.4409 3.36866Z" fill="#FE390C"/>
</svg>
