<svg width="40" height="40" viewBox="0 0 40 40" fill="none" xmlns="http://www.w3.org/2000/svg">
<path d="M1.06641 33V8.9375H10.6914V13.627H5.90625V17.4551H10.4453V22.0898H5.90625V33H1.06641Z" fill="white"/>
<path d="M18.4122 33.2188C16.489 33.2188 15.017 32.64 13.9962 31.4824C12.9845 30.3158 12.4786 28.6341 12.4786 26.4375V15.0078C12.4786 12.9479 12.9799 11.3848 13.9825 10.3184C14.9942 9.25195 16.4708 8.71875 18.4122 8.71875C20.3536 8.71875 21.8256 9.25195 22.8282 10.3184C23.8399 11.3848 24.3458 12.9479 24.3458 15.0078V26.4375C24.3458 28.6341 23.8354 30.3158 22.8145 31.4824C21.8028 32.64 20.3354 33.2188 18.4122 33.2188ZM18.4532 28.7891C19.1824 28.7891 19.547 28.0827 19.547 26.6699V14.9258C19.547 13.7409 19.1915 13.1484 18.4805 13.1484C17.6785 13.1484 17.2774 13.7546 17.2774 14.9668V26.6973C17.2774 27.4447 17.3686 27.9824 17.5509 28.3105C17.7332 28.6296 18.0339 28.7891 18.4532 28.7891Z" fill="white" fill-opacity="0.52"/>
<path d="M26.0099 33L28.5939 20.2441L26.5431 8.92383H31.2463L32.4904 17.1953L33.5978 8.92383H38.3146L36.2638 20.2441L38.8341 33H33.967L32.4494 23.5938L30.8908 33H26.0099Z" fill="url(#paint0_linear_0_631)"/>
<defs>
<linearGradient id="paint0_linear_0_631" x1="20" y1="0" x2="20" y2="40" gradientUnits="userSpaceOnUse">
<stop stop-color="#FE390C"/>
<stop offset="1" stop-color="#521B0E"/>
</linearGradient>
</defs>
</svg>
